<?xml version="1.0" encoding="UTF-8"?>
<svg xmlns="http://www.w3.org/2000/svg" xmlns:xlink="http://www.w3.org/1999/xlink" width="30px" height="30px" viewBox="0 0 30 30" version="1.1">
<g id="surface1">
<path style=" stroke:none;fill-rule:nonzero;fill:rgb(100%,40%,0%);fill-opacity:1;" d="M 28 11.988281 L 18.582031 11.988281 C 18.109375 11.988281 17.726562 11.605469 17.726562 11.132812 L 17.726562 1.316406 C 17.726562 0.589844 17.136719 0 16.410156 0 L 13.046875 0 C 12.320312 0 11.730469 0.589844 11.730469 1.316406 L 11.730469 11.074219 C 11.730469 11.582031 11.320312 11.992188 10.816406 11.992188 L 7.726562 12.007812 C 7.21875 12.011719 6.800781 11.597656 6.804688 11.085938 L 6.824219 1.320312 C 6.824219 0.589844 6.234375 0 5.507812 0 L 2.148438 0 C 1.417969 0 0.832031 0.589844 0.832031 1.316406 L 0.832031 28.804688 C 0.832031 29.453125 1.351562 29.972656 2 29.972656 L 28 29.972656 C 28.648438 29.972656 29.167969 29.453125 29.167969 28.804688 L 29.167969 13.160156 C 29.167969 12.511719 28.648438 11.988281 28 11.988281 Z M 23.582031 22.3125 C 23.582031 23.15625 22.898438 23.84375 22.050781 23.84375 L 19.394531 23.84375 C 18.546875 23.84375 17.859375 23.15625 17.859375 22.3125 L 17.859375 19.652344 C 17.859375 18.808594 18.546875 18.121094 19.394531 18.121094 L 22.050781 18.121094 C 22.898438 18.121094 23.582031 18.808594 23.582031 19.652344 Z M 23.582031 22.3125 "/>
</g>
</svg>
